# xmcd CD database file
#
# Track frame offsets:
#	150
#	14248
#	28086
#	47814
#	68698
#	79685
#	92825
#	107392
#	125172
#	140312
#	159641
#	175490
#	187642
#	202958
#	217197
#	230531
#	242971
#	261436
#	274349
#	292199
#	306012
#
# Disc length: 4281 seconds
#
# Revision: 0
# Processed by: cddbd v1.5.2PL0 Copyright (c) Steve Scherf et al.
# Submitted via: ACXtractor (MTCDDB.DLL V2003.07.15)
#
DISCID=3f10b715
DTITLE=Mixed - Line Dancing Songs
DYEAR=1987
DGENRE=Country
TTITLE0=Don't think Twice
TTITLE1=I'll Stay with Me
TTITLE2=Just too Busy Being Fabulous
TTITLE3=Oklahoma Wind
TTITLE4=Play me a Dancer
TTITLE5=She's Every Woman
TTITLE6=Velvet Waters
TTITLE7=The Woman He Loves
TTITLE8=The Cowboy rides Away/ George Strait
TTITLE9=I can Still make Cheyenne/ George Strait
TTITLE10=Texas Tornado/Tracy Lawrence
TTITLE11=The Whisky Ain't Working/ Travis Twitt
TTITLE12=That's all you ever got from Me/Anne Kirkpatrick
TTITLE13=Carbo San Lucas
TTITLE14=Chains of Gold
TTITLE15=Come Dance with Me
TTITLE16=Holding On
TTITLE17=Like She's not Yours
TTITLE18=Silk and Satin
TTITLE19=West Texas Waltz
TTITLE20=Zydeco Lady
EXTD=ID3G:   2 YEAR: 1987
EXTT0=
EXTT1=
EXTT2=
EXTT3=
EXTT4=
EXTT5=
EXTT6=
EXTT7=
EXTT8=
EXTT9=
EXTT10=
EXTT11=
EXTT12=
EXTT13=
EXTT14=
EXTT15=
EXTT16=
EXTT17=
EXTT18=
EXTT19=
EXTT20=
PLAYORDER=
